<svg xmlns="http://www.w3.org/2000/svg" width="25" height="24" fill="none" viewBox="0 0 25 24"><mask id="2kyyoiqpDua" width="21" height="22" x="2" y="1" maskUnits="userSpaceOnUse" style="mask-type:alpha"><path fill="#D9D9D9" fill-rule="evenodd" d="M23 1H2v22h21zm-6.543 7.043a1 1 0 0 1 0 1.414L13.914 12l2.543 2.543a1 1 0 0 1-1.414 1.414L12.5 13.414l-2.543 2.543a1 1 0 0 1-1.414-1.414L11.086 12 8.543 9.457a1 1 0 0 1 1.414-1.414l2.543 2.543 2.543-2.543a1 1 0 0 1 1.414 0" clip-rule="evenodd"/></mask><g mask="url(#2kyyoiqpDua)"><path fill="#999b84" stroke="#999b84" stroke-linecap="round" stroke-miterlimit="10" stroke-width="1.5" d="M12.5 21.25a9.25 9.25 0 1 0 0-18.5 9.25 9.25 0 0 0 0 18.5Z"/></g></svg>